Coordinates
version=1
nRows=6
nColumns=36
inDegrees=yes

Units are S.I. units (second, meters, Newtons, ...)
If the header above contains a line with 'inDegrees', this indicates whether rotational values are in degrees (yes) or radians (no).

endheader
time	pelvis_tilt	pelvis_list	pelvis_rotation	pelvis_tx	pelvis_ty	pelvis_tz	hip_flexion_r	hip_adduction_r	hip_rotation_r	knee_angle_r	knee_angle_r_beta	ankle_angle_r	subtalar_angle_r	mtp_angle_r	hip_flexion_l	hip_adduction_l	hip_rotation_l	knee_angle_l	knee_angle_l_beta	ankle_angle_l	subtalar_angle_l	mtp_angle_l	lumbar_extension	lumbar_bending	lumbar_rotation	arm_flex_r	arm_add_r	arm_rot_r	elbow_flex_r	pro_sup_r	arm_flex_l	arm_add_l	arm_rot_l	elbow_flex_l	pro_sup_l
      0.78000000	     -3.11924165	      6.36128255	     -1.54912641	      0.76106000	      0.92080976	     -0.19557284	     -6.14878680	     -6.14848466	     -0.84526986	     41.85343205	      0.73048019	     -0.83166526	     -8.68573572	     -7.11733466	     24.40272816	      7.36524965	      0.37686412	     22.04514428	      0.38476035	     -2.57037599	    -14.81364431	     -7.11733466	     -5.78556230	    -26.63306938	      6.97009784	     -2.07386523	     -9.35681493	     25.41897443	     39.24364194	    106.42324523	     -4.31809798	    -11.51022168	    -13.57465694	     30.41288162	     95.43386629
      0.79000000	     -3.22662508	      6.08666170	     -1.65512366	      0.77074031	      0.92258427	     -0.19686024	     -4.30567012	     -5.89006623	     -0.43380702	     45.02040930	      0.78575437	     -3.02287369	    -11.31403812	     -7.13527959	     23.78521296	      7.16951050	      0.29555074	     22.03993638	      0.38466946	     -1.88322083	    -14.60456564	     -7.13527959	     -5.71556838	    -26.41418612	      6.67670120	     -1.62717988	     -9.66031187	     27.49002238	     38.82007307	    107.15185592	     -4.16856331	    -11.14749436	    -14.72734306	     31.08934524	     95.08930600
      0.80000000	     -3.24998554	      6.05014573	     -1.70224665	      0.78032860	      0.92454707	     -0.19842103	     -2.52133721	     -6.02835598	     -0.35498487	     48.14667376	      0.84031798	     -3.55711969	    -12.37853313	     -7.13956400	     22.88964785	      7.30954814	      0.43584551	     21.61592652	      0.37726909	     -1.23883570	    -14.57774261	     -7.13956400	     -5.80780482	    -26.38761165	      6.56331560	     -1.64507112	     -9.80102170	     27.97295359	     39.01642597	    107.35687300	     -3.79531451	    -10.94673232	    -14.88443985	     31.53348483	     95.04179713
      0.81000000	     -3.43309097	      5.87905242	     -1.74056805	      0.78972209	      0.92638010	     -0.19991930	     -0.54869854	     -5.96494924	     -0.23510334	     51.01269679	      0.89033952	     -4.09538112	    -13.98860480	     -7.14518999	     22.18897719	      7.25586763	      0.44113150	     21.20722374	      0.37013588	     -0.70922804	    -14.39311170	     -7.14518999	     -5.67380563	    -26.17626646	      6.42965395	     -1.64065947	     -9.99311543	     28.56762514	     39.20370211	    107.66053451	     -3.55584259	    -10.71947301	    -15.11343347	     32.16362329	     94.96719319
      0.82000000	     -3.52208568	      5.64133748	     -1.73896423	      0.79889372	      0.92844188	     -0.20144610	      1.27541098	     -5.78870852	     -0.09765115	     53.52907257	      0.93425856	     -4.31650159	    -15.41423534	     -7.15002853	     21.37711816	      7.14313209	      0.49975233	     20.76366752	      0.36239436	     -0.18149795	    -14.12225480	     -7.15002853	     -5.74004041	    -25.85509920	      6.10853753	     -1.55421511	    -10.13775470	     28.94247259	     39.32098284	    107.91871233	     -3.35104156	    -10.50916190	    -15.22638402	     32.78913001	     94.91392764
      0.83000000	     -3.61160135	      5.25350139	     -1.70554508	      0.80793439	      0.93055869	     -0.20291366	      3.05156107	     -5.39107762	      0.03783070	     55.64874050	      0.97125375	     -4.94606123	    -17.14125599	     -7.17004464	     20.64495843	      6.80850665	      0.32910845	     20.47275425	      0.35731697	      0.66675884	    -13.16300900	     -7.17004464	     -5.81694389	    -25.34908289	      5.56559798	     -1.25274880	    -10.28077551	     29.62116350	     39.16085494	    108.68419542	     -3.37413634	    -10.22551600	    -15.70238534	     33.80373410	     94.57098397
